<svg width="284" height="188" viewBox="0 0 284 188" fill="none" xmlns="http://www.w3.org/2000/svg">
<g clip-path="url(#clip0_204_18)">
<path d="M55.4447 140.527C54.191 135.836 52.7807 131.77 51.9972 127.548C46.9827 98.6198 56.0715 74.226 76.1295 53.4287C86.7854 42.3263 99.7918 34.9769 115.149 32.1622C129.722 29.5039 143.512 31.6931 156.205 39.3553C178.3 52.8032 185.822 80.4808 173.599 103.155C168.115 113.319 160.123 121.45 151.034 128.33C129.095 144.749 104.493 152.568 76.913 151.473C75.1893 151.473 73.6223 151.473 71.2717 151.473C72.2119 152.88 72.6821 153.975 73.4656 154.913C84.1214 167.267 97.9113 174.616 113.738 177.431C157.772 185.249 195.224 172.74 224.998 139.276C241.295 120.981 249.914 99.0889 248.66 74.0696C247.72 55.9306 243.646 38.4171 236.594 21.6854C235.967 20.1217 235.184 18.7144 234.4 17.1506C234.087 16.5252 233.617 16.056 232.833 15.1178C232.206 16.3688 231.579 17.307 231.423 18.2452C230.012 24.5001 228.915 30.5985 227.505 36.8534C227.192 38.5734 226.722 40.4499 225.781 42.0136C225.311 42.9518 223.431 44.0464 222.647 43.7337C221.55 43.4209 220.61 41.8572 219.827 40.7626C219.513 40.2935 219.827 39.5117 219.983 38.8862C222.334 27.4711 224.841 16.0561 227.348 4.64099C228.602 -1.14473 230.953 -2.23933 236.281 0.262606C237.534 0.888089 238.631 1.3572 239.885 2.13905C250.697 9.17574 261.51 16.2124 272.009 23.4055C275.3 25.5947 278.277 28.4093 281.098 31.224C282.351 32.475 283.448 34.1951 283.918 35.9151C284.232 36.8534 283.605 38.7298 282.665 39.3553C281.881 39.9808 280.314 39.5117 279.061 39.5117C278.591 39.5117 278.277 39.0425 277.964 38.5734C269.815 29.5039 259.159 23.5618 249.287 16.9943C246.623 15.2742 244.116 13.7105 240.355 11.3649C240.825 13.085 240.982 13.7105 241.295 14.1796C249.6 30.4422 253.675 47.9557 255.555 65.9383C259.786 104.406 244.272 135.054 215.282 159.135C191.62 178.682 163.727 187.595 133.013 186.969C118.596 186.657 104.493 183.842 91.3298 177.274C80.0471 171.645 70.4882 163.826 63.4365 153.35C61.3994 150.379 59.0488 148.971 55.6014 147.877C48.8631 145.844 42.1249 143.655 36.0134 140.527C8.9037 127.079 -4.2594 101.434 1.22523 71.5677C6.23974 43.4209 22.0668 22.9364 48.7064 11.3649C53.7209 9.17574 59.2055 8.39388 64.6902 7.14292C66.5706 6.67381 68.7645 6.98655 70.6449 7.29929C72.2119 7.61203 73.4656 8.863 72.9955 10.5831C72.6821 11.6777 71.4284 12.6159 70.6449 13.3977C70.3315 13.7105 69.7047 13.5541 69.2346 13.5541C53.4075 14.1796 40.8712 21.529 30.0587 32.0059C15.7987 45.9229 7.80678 62.9673 7.49337 83.2955C7.17996 100.809 14.0749 115.039 27.0813 126.454C34.9165 133.178 45.8857 138.807 55.4447 140.527ZM82.0843 144.593C102.142 144.436 120.79 139.12 137.714 128.643C148.213 122.232 157.459 114.413 164.51 104.249C181.121 79.8553 168.428 50.9267 144.609 42.0136C132.073 37.3225 119.38 37.3225 106.843 42.17C82.8678 51.5522 68.1376 69.3785 60.7726 93.6159C56.0715 108.94 57.0117 124.265 63.1231 139.12C64.3768 142.247 66.2572 143.655 69.3913 143.811C73.779 143.967 77.8533 144.28 82.0843 144.593Z" fill="white"/>
</g>
<defs>
<clipPath id="clip0_204_18">
<rect width="284" height="188" fill="white"/>
</clipPath>
</defs>
</svg>
