<svg width="1511" height="1166" viewBox="0 0 1511 1166" fill="none" xmlns="http://www.w3.org/2000/svg">
<path d="M1239.08 314.594V268.406H1163.95V210.463H1104.05V268.406H1028.92V314.594H1104.05V372.537H1163.95V314.594H1239.08Z" fill="#1A1A1A"/>
<path d="M1239.08 606.094V559.906H1163.95V501.963H1104.05V559.906H1028.92V606.094H1104.05V664.037H1163.95V606.094H1239.08Z" fill="#1A1A1A"/>
<path d="M1239.08 897.594V851.406H1163.95V793.463H1104.05V851.406H1028.92V897.594H1104.05V955.537H1163.95V897.594H1239.08Z" fill="#1A1A1A"/>
<path d="M861.084 314.594V268.406H785.947V210.463H726.054V268.406H650.916V314.594H726.054V372.537H785.947V314.594H861.084Z" fill="#1A1A1A"/>
<path d="M861.084 606.094V559.906H785.947V501.963H726.054V559.906H650.916V606.094H726.054V664.037H785.947V606.094H861.084Z" fill="#1A1A1A"/>
<path d="M861.084 897.594V851.406H785.947V793.463H726.054V851.406H650.916V897.594H726.054V955.537H785.947V897.594H861.084Z" fill="#1A1A1A"/>
<path d="M483.084 314.594V268.406H407.947V210.463H348.054L348.054 268.406H272.916V314.594H348.054V372.537H407.947V314.594H483.084Z" fill="#1A1A1A"/>
<path d="M483.084 606.094V559.906H407.947V501.963H348.054L348.054 559.906H272.916V606.094H348.054V664.037H407.947V606.094H483.084Z" fill="#1A1A1A"/>
<path d="M483.084 897.594V851.406H407.947V793.463H348.054L348.054 851.406H272.916V897.594H348.054V955.537H407.947V897.594H483.084Z" fill="#1A1A1A"/>
<path d="M105.079 0H0V81.037H29.9412V23.0935H105.079V0Z" fill="#1A1A1A"/>
<path d="M0 372.537V210.463H29.9412V268.406H105.079V314.594H29.9412V372.537H0Z" fill="#1A1A1A"/>
<path d="M0 664.037V501.963H29.9412V559.906H105.079V606.094H29.9412V664.037H0Z" fill="#1A1A1A"/>
<path d="M0 955.537V793.463H29.9412V851.406H105.079V897.594H29.9412V955.537H0Z" fill="#1A1A1A"/>
<path d="M105.079 1166H0V1084.96H29.9412V1142.91H105.079V1166Z" fill="#1A1A1A"/>
<path d="M483.084 1166H272.916V1142.91H348.054L348.054 1084.96H407.947V1142.91H483.084V1166Z" fill="#1A1A1A"/>
<path d="M861.084 1166H650.916V1142.91H726.054V1084.96H785.947V1142.91H861.084V1166Z" fill="#1A1A1A"/>
<path d="M1239.08 1166H1028.92V1142.91H1104.05V1084.96H1163.95V1142.91H1239.08V1166Z" fill="#1A1A1A"/>
<path d="M1512 1084.96V1166H1406.92V1142.91H1482.05V1084.96H1512Z" fill="#1A1A1A"/>
<path d="M1512 793.463V955.537H1482.05V897.594H1406.92V851.406H1482.05V793.463H1512Z" fill="#1A1A1A"/>
<path d="M1512 501.963V664.037H1482.05V606.094H1406.92V559.906H1482.05V501.963H1512Z" fill="#1A1A1A"/>
<path d="M1512 210.463V372.537H1482.05V314.594H1406.92V268.406H1482.05V210.463H1512Z" fill="#1A1A1A"/>
<path d="M1512 81.037V0H1406.92V23.0935H1482.05V81.037H1512Z" fill="#1A1A1A"/>
<path d="M1239.08 0V23.0936L1163.95 23.0935V81.037H1104.05V23.0935H1028.92V0H1239.08Z" fill="#1A1A1A"/>
<path d="M861.084 0V23.0936L785.947 23.0935V81.037H726.054V23.0935H650.916V0H861.084Z" fill="#1A1A1A"/>
<path d="M483.084 0V23.0936L407.947 23.0935V81.037H348.054V23.0935H272.916V0H483.084Z" fill="#1A1A1A"/>
</svg>
