<svg width="1508" height="1543" viewBox="0 0 1508 1543" fill="none" xmlns="http://www.w3.org/2000/svg">
<path d="M178.632 0L377.094 121.691L575.337 0H692.589L377.111 193.656L61.2853 0H178.632Z" fill="#2E3120" fill-opacity="0.03"/>
<path d="M1329.36 0H1446.71L1130.9 193.651L815.084 0H932.43L1130.9 121.696L1329.36 0Z" fill="#2E3120" fill-opacity="0.03"/>
<path d="M0 182.849V110.895L377.094 342.118L753.786 110.886L1130.9 342.123L1508 110.891L1508 182.846L1130.9 414.078L753.803 182.851L377.111 414.083L0 182.849Z" fill="#2E3120" fill-opacity="0.03"/>
<path d="M0 403.276V331.322L377.094 562.545L753.786 331.313L1130.9 562.551L1508 331.318L1508 403.273L1130.9 634.505L753.803 403.278L377.111 634.51L0 403.276Z" fill="#2E3120" fill-opacity="0.03"/>
<path d="M0 623.702V551.748L377.094 782.972L753.786 551.74L1130.9 782.977L1508 551.745L1508 623.699L1130.9 854.932L753.803 623.705L377.111 854.937L0 623.702Z" fill="#2E3120" fill-opacity="0.03"/>
<path d="M0 844.13V772.176L377.094 1003.4L753.786 772.167L1130.9 1003.4L1508 772.172L1508 844.127L1130.9 1075.36L753.803 844.132L377.111 1075.36L0 844.13Z" fill="#2E3120" fill-opacity="0.03"/>
<path d="M0 1064.56V992.602L377.094 1223.83L753.786 992.594L1130.9 1223.83L1508 992.599L1508 1064.55L1130.9 1295.79L753.803 1064.56L377.111 1295.79L0 1064.56Z" fill="#2E3120" fill-opacity="0.03"/>
<path d="M0 1284.98V1213.03L377.094 1444.25L753.786 1213.02L1130.9 1444.26L1508 1213.03L1508 1284.98L1130.9 1516.21L753.803 1284.99L377.111 1516.22L0 1284.98Z" fill="#2E3120" fill-opacity="0.03"/>
<path d="M0 1505.41V1433.46L178.65 1543H61.3032L0 1505.41Z" fill="#2E3120" fill-opacity="0.03"/>
<path d="M815.102 1543L753.803 1505.41L692.571 1543H575.319L753.786 1433.45L932.448 1543H815.102Z" fill="#2E3120" fill-opacity="0.03"/>
<path d="M1508 1433.45L1329.35 1543H1446.69L1508 1505.41L1508 1433.45Z" fill="#2E3120" fill-opacity="0.03"/>
</svg>
