<svg width="149" height="133" viewBox="0 0 149 133" fill="none" xmlns="http://www.w3.org/2000/svg">
<path d="M74.5 133C115.645 133 149 103.227 149 66.5C149 29.7731 115.645 0 74.5 0C33.3548 0 0 29.7731 0 66.5C0 103.227 33.3548 133 74.5 133Z" fill="#F0DB4F"/>
<path d="M51.2561 40.698H64.2191V73.283C64.2191 87.913 56.3221 93.1 43.8061 93.1C40.6771 93.1 36.8031 92.701 34.2701 91.903L35.7601 82.46C37.5481 82.992 39.9321 83.391 42.4651 83.391C47.9781 83.391 51.4051 81.13 51.4051 73.283L51.2561 40.698Z" fill="#323330"/>
<path d="M75.692 80.3319C79.119 81.9279 84.632 83.5239 90.145 83.5239C96.105 83.5239 99.234 81.2629 99.234 77.8049C99.234 74.6129 96.552 72.7509 89.549 70.6229C80.013 67.5639 73.606 62.7759 73.606 55.1949C73.606 46.5499 81.95 39.8999 95.509 39.8999C102.065 39.8999 106.833 41.0969 110.26 42.5599L107.28 51.8699C105.045 50.9389 100.873 49.4759 95.36 49.4759C89.698 49.4759 87.016 51.8699 87.016 54.3969C87.016 57.7219 90.145 59.1849 97.744 61.7119C107.876 65.0369 112.644 69.8249 112.644 77.1399C112.644 85.7849 105.343 93.0999 89.4 93.0999C82.844 93.0999 76.288 91.5039 73.01 89.9079L75.692 80.3319Z" fill="#323330"/>
</svg>
