<svg width="1508" height="1431" viewBox="0 0 1508 1431" fill="none" xmlns="http://www.w3.org/2000/svg">
<path d="M178.632 0L377.094 112.858L575.337 0H692.589L377.111 179.599L61.2853 0H178.632Z" fill="black" fill-opacity="0.14"/>
<path d="M1329.36 0H1446.71L1130.9 179.594L815.084 0H932.43L1130.9 112.863L1329.36 0Z" fill="black" fill-opacity="0.14"/>
<path d="M0 169.576V102.845L377.094 317.285L753.786 102.837L1130.9 317.29L1508 102.842L1508 169.574L1130.9 384.021L753.803 169.578L377.111 384.026L0 169.576Z" fill="black" fill-opacity="0.14"/>
<path d="M0 374.004V307.272L377.094 521.713L753.786 307.265L1130.9 521.717L1508 307.269L1508 374.001L1130.9 588.449L753.803 374.006L377.111 588.453L0 374.004Z" fill="black" fill-opacity="0.14"/>
<path d="M0 578.43V511.699L377.094 726.139L753.786 511.691L1130.9 726.144L1508 511.696L1508 578.428L1130.9 792.876L753.803 578.432L377.111 792.88L0 578.43Z" fill="black" fill-opacity="0.14"/>
<path d="M0 782.858V716.127L377.094 930.567L753.786 716.119L1130.9 930.572L1508 716.123L1508 782.855L1130.9 997.303L753.803 782.86L377.111 997.307L0 782.858Z" fill="black" fill-opacity="0.14"/>
<path d="M0 987.285V920.553L377.094 1134.99L753.786 920.546L1130.9 1135L1508 920.55L1508 987.282L1130.9 1201.73L753.803 987.286L377.111 1201.73L0 987.285Z" fill="black" fill-opacity="0.14"/>
<path d="M0 1191.71V1124.98L377.094 1339.42L753.786 1124.97L1130.9 1339.43L1508 1124.98L1508 1191.71L1130.9 1406.16L753.803 1191.71L377.111 1406.16L0 1191.71Z" fill="black" fill-opacity="0.14"/>
<path d="M0 1396.14V1329.41L178.65 1431H61.3032L0 1396.14Z" fill="black" fill-opacity="0.14"/>
<path d="M815.102 1431L753.803 1396.14L692.571 1431H575.319L753.786 1329.4L932.448 1431H815.102Z" fill="black" fill-opacity="0.14"/>
<path d="M1508 1329.4L1329.35 1431H1446.69L1508 1396.14L1508 1329.4Z" fill="black" fill-opacity="0.14"/>
</svg>
